# xmcd CD database file
#
# Track frame offsets:
#	150
#	59133
#	107962
#	160238
#	211003
#	253418
#
# Disc length: 4373 seconds
#
# Revision: 0
# Processed by: cddbd v1.5.2PL0 Copyright (c) Steve Scherf et al.
# Submitted via: CDex 1.70beta2
#
DISCID=59111306
DTITLE=Tim Sund - Butterfly Effect (Tribute to Hancock)
DYEAR=2017
DGENRE=Jazz
TTITLE0=Hidden Shadows
TTITLE1=Butterfly
TTITLE2=Ostinato/Nefertiti
TTITLE3=Rain Dance
TTITLE4=You'll Know When You Get There
TTITLE5=Water Torture
EXTD=YEAR: 2017
EXTT0=
EXTT1=
EXTT2=
EXTT3=
EXTT4=
EXTT5=
PLAYORDER=
